ffmpeg started on 2025-05-12 at 21:37:36
Report written to "D:\Convert\FFMetrics\reports\ssim_report-6.txt"
Log level: 32
Command line:
ffmpeg -hide_banner -nostdin -i "G:\\\xc0\xed\xe8\xec\xe5\\\xce\xed\xe3\xee\xe8\xed\xe3\xe8\\!_35_\xcb\xe5\xf2\xee_2024\\DreamCast-1\\\xd1\xeb\xe8\xf8\xea\xee\xec \xec\xed\xee\xe3\xee \xef\xf0\xee\xe8\xe3\xf0\xe0\xe2\xf8\xe8\xf5 \xe3\xe5\xf0\xee\xe8\xed\xfc!\\[DC] Make Heroine ga Oosugiru - 01_Telegram_HEVC.mkv" -i "G:\\\xc0\xed\xe8\xec\xe5\\\xce\xed\xe3\xee\xe8\xed\xe3\xe8\\!_35_\xcb\xe5\xf2\xee_2024\\DreamCast-1\\\xd1\xeb\xe8\xf8\xea\xee\xec \xec\xed\xee\xe3\xee \xef\xf0\xee\xe8\xe3\xf0\xe0\xe2\xf8\xe8\xf5 \xe3\xe5\xf0\xee\xe8\xed\xfc!\\[DC] Make Heroine ga Oosugiru - 01_Telegram.mp4" -lavfi "[0:v]settb=AVTB,setpts=PTS-STARTPTS,format=pix_fmts=yuv420p10,fps=24000/1001,scale=1920:1080:flags=bicubic[main];[1:v]settb=AVTB,setpts=PTS-STARTPTS,format=pix_fmts=yuv420p,fps=24000/1001,scale=1920:1080:flags=bicubic[ref];[main][ref]ssim=eof_action=endall:stats_file='D\\:/Convert/FFMetrics/logs/ssim_logfile-6.txt'" -f null -
Input #0, matroska,webm, from 'G:\Аниме\Онгоинги\!_35_Лето_2024\DreamCast-1\Слишком много проигравших героинь!\[DC] Make Heroine ga Oosugiru - 01_Telegram_HEVC.mkv':
  Metadata:
    COMPATIBLE_BRANDS: isomiso2avc1mp41
    MAJOR_BRAND     : isom
    MINOR_VERSION   : 512
    ENCODER         : Lavf61.7.100
  Duration: 00:24:06.66, start: -0.021000, bitrate: 1047 kb/s
  Stream #0:0: Video: hevc (Main 10), yuv420p10le(tv, bt709, progressive), 1920x1080 [SAR 1:1 DAR 16:9], 23.98 fps, 23.98 tbr, 1k tbn (default)
      Metadata:
        HANDLER_NAME    : VideoHandler
        VENDOR_ID       : [0][0][0][0]
        ENCODER         : Lavc61.19.100 libx265
        BPS             : 849989
        DURATION        : 00:24:06.569708333
        NUMBER_OF_FRAMES: 34683
        NUMBER_OF_BYTES : 153696085
        _STATISTICS_WRITING_APP: mkvpropedit v66.0.0 ('Josie') 64-bit
        _STATISTICS_WRITING_DATE_UTC: 2025-05-11 09:33:11
        _STATISTICS_TAGS: BPS DURATION NUMBER_OF_FRAMES NUMBER_OF_BYTES
  Stream #0:1: Audio: aac (LC), 48000 Hz, stereo, fltp (default)
      Metadata:
        HANDLER_NAME    : SoundHandler
        VENDOR_ID       : [0][0][0][0]
        ENCODER         : Lavc61.19.100 aac
        BPS             : 193503
        DURATION        : 00:24:06.656000000
        NUMBER_OF_FRAMES: 67813
        NUMBER_OF_BYTES : 34991544
        _STATISTICS_WRITING_APP: mkvpropedit v66.0.0 ('Josie') 64-bit
        _STATISTICS_WRITING_DATE_UTC: 2025-05-11 09:33:11
        _STATISTICS_TAGS: BPS DURATION NUMBER_OF_FRAMES NUMBER_OF_BYTES
Input #1, mov,mp4,m4a,3gp,3g2,mj2, from 'G:\Аниме\Онгоинги\!_35_Лето_2024\DreamCast-1\Слишком много проигравших героинь!\[DC] Make Heroine ga Oosugiru - 01_Telegram.mp4':
  Metadata:
    major_brand     : isom
    minor_version   : 512
    compatible_brands: isomiso2avc1mp41
    encoder         : Lavf61.1.100
  Duration: 00:24:06.61, start: 0.000000, bitrate: 3760 kb/s
  Stream #1:0[0x1](und): Video: h264 (High) (avc1 / 0x31637661), yuv420p(tv, bt709, progressive), 1920x1080 [SAR 1:1 DAR 16:9], 3613 kb/s, 23.98 fps, 23.98 tbr, 24k tbn (default)
      Metadata:
        handler_name    : VideoHandler
        vendor_id       : [0][0][0][0]
        encoder         : Lavc61.3.100 h264_qsv
  Stream #1:1[0x2](und): Audio: aac (HE-AACv2) (mp4a / 0x6134706D), 48000 Hz, stereo, fltp, 144 kb/s (default)
      Metadata:
        handler_name    : SoundHandler
        vendor_id       : [0][0][0][0]
Stream mapping:
  Stream #0:0 (hevc) -> settb:default
  Stream #1:0 (h264) -> settb:default
  ssim:default -> Stream #0:0 (wrapped_avframe)
  Stream #0:1 -> #0:1 (aac (native) -> pcm_s16le (native))
Output #0, null, to 'pipe:':
  Metadata:
    COMPATIBLE_BRANDS: isomiso2avc1mp41
    MAJOR_BRAND     : isom
    MINOR_VERSION   : 512
    encoder         : Lavf61.7.100
  Stream #0:0: Video: wrapped_avframe, yuv420p10le(tv, bt709, progressive), 1920x1080 [SAR 1:1 DAR 16:9], q=2-31, 200 kb/s, 23.98 fps, 23.98 tbn
      Metadata:
        encoder         : Lavc61.19.100 wrapped_avframe
  Stream #0:1: Audio: pcm_s16le, 48000 Hz, stereo, s16, 1536 kb/s (default)
      Metadata:
        HANDLER_NAME    : SoundHandler
        VENDOR_ID       : [0][0][0][0]
        _STATISTICS_TAGS: BPS DURATION NUMBER_OF_FRAMES NUMBER_OF_BYTES
        BPS             : 193503
        DURATION        : 00:24:06.656000000
        NUMBER_OF_FRAMES: 67813
        NUMBER_OF_BYTES : 34991544
        _STATISTICS_WRITING_APP: mkvpropedit v66.0.0 ('Josie') 64-bit
        _STATISTICS_WRITING_DATE_UTC: 2025-05-11 09:33:11
        encoder         : Lavc61.19.100 pcm_s16le
frame=  169 fps=0.0 q=-0.0 size=N/A time=00:00:07.04 bitrate=N/A speed=  14x    frame=  398 fps=388 q=-0.0 size=N/A time=00:00:16.59 bitrate=N/A speed=16.2x    frame=  620 fps=401 q=-0.0 size=N/A time=00:00:25.85 bitrate=N/A speed=16.7x    frame=  846 fps=413 q=-0.0 size=N/A time=00:00:35.28 bitrate=N/A speed=17.2x    frame= 1090 fps=424 q=-0.0 size=N/A time=00:00:45.46 bitrate=N/A speed=17.7x    frame= 1351 fps=437 q=-0.0 size=N/A time=00:00:56.34 bitrate=N/A speed=18.2x    frame= 1587 fps=441 q=-0.0 size=N/A time=00:01:06.19 bitrate=N/A speed=18.4x    frame= 1837 fps=445 q=-0.0 size=N/A time=00:01:16.61 bitrate=N/A speed=18.6x    frame= 2057 fps=443 q=-0.0 size=N/A time=00:01:25.79 bitrate=N/A speed=18.5x    frame= 2261 fps=439 q=-0.0 size=N/A time=00:01:34.30 bitrate=N/A speed=18.3x    frame= 2476 fps=437 q=-0.0 size=N/A time=00:01:43.26 bitrate=N/A speed=18.2x    frame= 2704 fps=438 q=-0.0 size=N/A time=00:01:52.77 bitrate=N/A speed=18.3x    frame= 2901 fps=433 q=-0.0 size=N/A time=00:02:00.99 bitrate=N/A speed=18.1x    frame= 3152 fps=437 q=-0.0 size=N/A time=00:02:11.46 bitrate=N/A speed=18.2x    frame= 3406 fps=440 q=-0.0 size=N/A time=00:02:22.05 bitrate=N/A speed=18.4x    frame= 3647 fps=442 q=-0.0 size=N/A time=00:02:32.11 bitrate=N/A speed=18.5x    frame= 3891 fps=444 q=-0.0 size=N/A time=00:02:42.28 bitrate=N/A speed=18.5x    frame= 4107 fps=443 q=-0.0 size=N/A time=00:02:51.29 bitrate=N/A speed=18.5x    frame= 4327 fps=442 q=-0.0 size=N/A time=00:03:00.47 bitrate=N/A speed=18.4x    frame= 4567 fps=443 q=-0.0 size=N/A time=00:03:10.48 bitrate=N/A speed=18.5x    frame= 4794 fps=443 q=-0.0 size=N/A time=00:03:19.94 bitrate=N/A speed=18.5x    frame= 5027 fps=443 q=-0.0 size=N/A time=00:03:29.66 bitrate=N/A speed=18.5x    frame= 5268 fps=444 q=-0.0 size=N/A time=00:03:39.71 bitrate=N/A speed=18.5x    frame= 5521 fps=446 q=-0.0 size=N/A time=00:03:50.27 bitrate=N/A speed=18.6x    frame= 5777 fps=448 q=-0.0 size=N/A time=00:04:00.94 bitrate=N/A speed=18.7x    frame= 6035 fps=450 q=-0.0 size=N/A time=00:04:11.70 bitrate=N/A speed=18.8x    frame= 6268 fps=451 q=-0.0 size=N/A time=00:04:21.42 bitrate=N/A speed=18.8x    frame= 6514 fps=451 q=-0.0 size=N/A time=00:04:31.68 bitrate=N/A speed=18.8x    frame= 6743 fps=451 q=-0.0 size=N/A time=00:04:41.23 bitrate=N/A speed=18.8x    frame= 6964 fps=450 q=-0.0 size=N/A time=00:04:50.45 bitrate=N/A speed=18.8x    frame= 7213 fps=451 q=-0.0 size=N/A time=00:05:00.84 bitrate=N/A speed=18.8x    frame= 7446 fps=451 q=-0.0 size=N/A time=00:05:10.56 bitrate=N/A speed=18.8x    frame= 7684 fps=452 q=-0.0 size=N/A time=00:05:20.48 bitrate=N/A speed=18.8x    frame= 7912 fps=452 q=-0.0 size=N/A time=00:05:29.99 bitrate=N/A speed=18.8x    frame= 8180 fps=453 q=-0.0 size=N/A time=00:05:41.17 bitrate=N/A speed=18.9x    frame= 8427 fps=454 q=-0.0 size=N/A time=00:05:51.47 bitrate=N/A speed=18.9x    frame= 8669 fps=455 q=-0.0 size=N/A time=00:06:01.56 bitrate=N/A speed=  19x    frame= 8878 fps=453 q=-0.0 size=N/A time=00:06:10.28 bitrate=N/A speed=18.9x    frame= 9064 fps=451 q=-0.0 size=N/A time=00:06:18.04 bitrate=N/A speed=18.8x    frame= 9234 fps=448 q=-0.0 size=N/A time=00:06:25.13 bitrate=N/A speed=18.7x    frame= 9476 fps=448 q=-0.0 size=N/A time=00:06:35.22 bitrate=N/A speed=18.7x    frame= 9709 fps=449 q=-0.0 size=N/A time=00:06:44.94 bitrate=N/A speed=18.7x    frame= 9942 fps=449 q=-0.0 size=N/A time=00:06:54.66 bitrate=N/A speed=18.7x    frame=10163 fps=448 q=-0.0 size=N/A time=00:07:03.88 bitrate=N/A speed=18.7x    frame=10430 fps=450 q=-0.0 size=N/A time=00:07:15.01 bitrate=N/A speed=18.7x    frame=10648 fps=449 q=-0.0 size=N/A time=00:07:24.11 bitrate=N/A speed=18.7x    frame=10878 fps=449 q=-0.0 size=N/A time=00:07:33.70 bitrate=N/A speed=18.7x    frame=11111 fps=449 q=-0.0 size=N/A time=00:07:43.42 bitrate=N/A speed=18.7x    frame=11340 fps=449 q=-0.0 size=N/A time=00:07:52.97 bitrate=N/A speed=18.7x    frame=11561 fps=448 q=-0.0 size=N/A time=00:08:02.19 bitrate=N/A speed=18.7x    frame=11779 fps=448 q=-0.0 size=N/A time=00:08:11.28 bitrate=N/A speed=18.7x    frame=11971 fps=447 q=-0.0 size=N/A time=00:08:19.29 bitrate=N/A speed=18.6x    frame=12195 fps=446 q=-0.0 size=N/A time=00:08:28.63 bitrate=N/A speed=18.6x    frame=12379 fps=445 q=-0.0 size=N/A time=00:08:36.30 bitrate=N/A speed=18.5x    frame=12589 fps=444 q=-0.0 size=N/A time=00:08:45.06 bitrate=N/A speed=18.5x    frame=12840 fps=445 q=-0.0 size=N/A time=00:08:55.53 bitrate=N/A speed=18.5x    frame=13067 fps=445 q=-0.0 size=N/A time=00:09:05.00 bitrate=N/A speed=18.6x    frame=13315 fps=445 q=-0.0 size=N/A time=00:09:15.34 bitrate=N/A speed=18.6x    frame=13522 fps=444 q=-0.0 size=N/A time=00:09:23.98 bitrate=N/A speed=18.5x    frame=13770 fps=445 q=-0.0 size=N/A time=00:09:34.32 bitrate=N/A speed=18.6x    frame=14006 fps=445 q=-0.0 size=N/A time=00:09:44.16 bitrate=N/A speed=18.6x    frame=14266 fps=446 q=-0.0 size=N/A time=00:09:55.01 bitrate=N/A speed=18.6x    frame=14486 fps=446 q=-0.0 size=N/A time=00:10:04.18 bitrate=N/A speed=18.6x    frame=14746 fps=447 q=-0.0 size=N/A time=00:10:15.03 bitrate=N/A speed=18.6x    frame=14996 fps=447 q=-0.0 size=N/A time=00:10:25.45 bitrate=N/A speed=18.7x    frame=15247 fps=448 q=-0.0 size=N/A time=00:10:35.92 bitrate=N/A speed=18.7x    frame=15497 fps=449 q=-0.0 size=N/A time=00:10:46.35 bitrate=N/A speed=18.7x    frame=15732 fps=449 q=-0.0 size=N/A time=00:10:56.15 bitrate=N/A speed=18.7x    frame=15954 fps=448 q=-0.0 size=N/A time=00:11:05.41 bitrate=N/A speed=18.7x    frame=16188 fps=449 q=-0.0 size=N/A time=00:11:15.17 bitrate=N/A speed=18.7x    frame=16438 fps=449 q=-0.0 size=N/A time=00:11:25.60 bitrate=N/A speed=18.7x    frame=16663 fps=449 q=-0.0 size=N/A time=00:11:34.98 bitrate=N/A speed=18.7x    frame=16904 fps=449 q=-0.0 size=N/A time=00:11:45.03 bitrate=N/A speed=18.7x    frame=17144 fps=449 q=-0.0 size=N/A time=00:11:55.04 bitrate=N/A speed=18.7x    frame=17407 fps=450 q=-0.0 size=N/A time=00:12:06.01 bitrate=N/A speed=18.8x    frame=17662 fps=451 q=-0.0 size=N/A time=00:12:16.65 bitrate=N/A speed=18.8x    frame=17912 fps=451 q=-0.0 size=N/A time=00:12:27.07 bitrate=N/A speed=18.8x    frame=18175 fps=452 q=-0.0 size=N/A time=00:12:38.04 bitrate=N/A speed=18.8x    frame=18416 fps=452 q=-0.0 size=N/A time=00:12:48.10 bitrate=N/A speed=18.9x    frame=18639 fps=452 q=-0.0 size=N/A time=00:12:57.40 bitrate=N/A speed=18.8x    frame=18872 fps=452 q=-0.0 size=N/A time=00:13:07.11 bitrate=N/A speed=18.8x    frame=19088 fps=451 q=-0.0 size=N/A time=00:13:16.12 bitrate=N/A speed=18.8x    frame=19316 fps=451 q=-0.0 size=N/A time=00:13:25.63 bitrate=N/A speed=18.8x    frame=19546 fps=451 q=-0.0 size=N/A time=00:13:35.23 bitrate=N/A speed=18.8x    frame=19776 fps=451 q=-0.0 size=N/A time=00:13:44.82 bitrate=N/A speed=18.8x    frame=19994 fps=451 q=-0.0 size=N/A time=00:13:53.91 bitrate=N/A speed=18.8x    frame=20235 fps=451 q=-0.0 size=N/A time=00:14:03.96 bitrate=N/A speed=18.8x    frame=20478 fps=451 q=-0.0 size=N/A time=00:14:14.10 bitrate=N/A speed=18.8x    frame=20710 fps=451 q=-0.0 size=N/A time=00:14:23.77 bitrate=N/A speed=18.8x    frame=20942 fps=451 q=-0.0 size=N/A time=00:14:33.45 bitrate=N/A speed=18.8x    frame=21199 fps=452 q=-0.0 size=N/A time=00:14:44.17 bitrate=N/A speed=18.8x    frame=21462 fps=452 q=-0.0 size=N/A time=00:14:55.14 bitrate=N/A speed=18.9x    frame=21699 fps=452 q=-0.0 size=N/A time=00:15:05.02 bitrate=N/A speed=18.9x    frame=21919 fps=452 q=-0.0 size=N/A time=00:15:14.20 bitrate=N/A speed=18.9x    frame=22169 fps=452 q=-0.0 size=N/A time=00:15:24.63 bitrate=N/A speed=18.9x    frame=22397 fps=452 q=-0.0 size=N/A time=00:15:34.14 bitrate=N/A speed=18.9x    frame=22642 fps=453 q=-0.0 size=N/A time=00:15:44.36 bitrate=N/A speed=18.9x    frame=22888 fps=453 q=-0.0 size=N/A time=00:15:54.62 bitrate=N/A speed=18.9x    frame=23138 fps=453 q=-0.0 size=N/A time=00:16:05.04 bitrate=N/A speed=18.9x    frame=23379 fps=453 q=-0.0 size=N/A time=00:16:15.09 bitrate=N/A speed=18.9x    frame=23605 fps=453 q=-0.0 size=N/A time=00:16:24.52 bitrate=N/A speed=18.9x    frame=23848 fps=453 q=-0.0 size=N/A time=00:16:34.66 bitrate=N/A speed=18.9x    frame=24101 fps=454 q=-0.0 size=N/A time=00:16:45.21 bitrate=N/A speed=18.9x    frame=24360 fps=454 q=-0.0 size=N/A time=00:16:56.01 bitrate=N/A speed=18.9x    frame=24609 fps=454 q=-0.0 size=N/A time=00:17:06.40 bitrate=N/A speed=18.9x    frame=24851 fps=454 q=-0.0 size=N/A time=00:17:16.49 bitrate=N/A speed=  19x    frame=25069 fps=454 q=-0.0 size=N/A time=00:17:25.58 bitrate=N/A speed=18.9x    frame=25304 fps=454 q=-0.0 size=N/A time=00:17:35.38 bitrate=N/A speed=18.9x    frame=25553 fps=454 q=-0.0 size=N/A time=00:17:45.77 bitrate=N/A speed=  19x    frame=25815 fps=455 q=-0.0 size=N/A time=00:17:56.70 bitrate=N/A speed=  19x    frame=26059 fps=455 q=-0.0 size=N/A time=00:18:06.87 bitrate=N/A speed=  19x    frame=26317 fps=455 q=-0.0 size=N/A time=00:18:17.63 bitrate=N/A speed=  19x    frame=26565 fps=456 q=-0.0 size=N/A time=00:18:27.98 bitrate=N/A speed=  19x    frame=26809 fps=456 q=-0.0 size=N/A time=00:18:38.15 bitrate=N/A speed=  19x    frame=27042 fps=456 q=-0.0 size=N/A time=00:18:47.87 bitrate=N/A speed=  19x    frame=27281 fps=456 q=-0.0 size=N/A time=00:18:57.84 bitrate=N/A speed=  19x    frame=27527 fps=456 q=-0.0 size=N/A time=00:19:08.10 bitrate=N/A speed=  19x    frame=27752 fps=456 q=-0.0 size=N/A time=00:19:17.53 bitrate=N/A speed=  19x    frame=27996 fps=456 q=-0.0 size=N/A time=00:19:27.66 bitrate=N/A speed=  19x    frame=28197 fps=456 q=-0.0 size=N/A time=00:19:36.04 bitrate=N/A speed=  19x    frame=28412 fps=455 q=-0.0 size=N/A time=00:19:45.01 bitrate=N/A speed=  19x    frame=28651 fps=455 q=-0.0 size=N/A time=00:19:54.98 bitrate=N/A speed=  19x    frame=28871 fps=455 q=-0.0 size=N/A time=00:20:04.16 bitrate=N/A speed=  19x    frame=29100 fps=455 q=-0.0 size=N/A time=00:20:13.71 bitrate=N/A speed=  19x    frame=29347 fps=455 q=-0.0 size=N/A time=00:20:24.01 bitrate=N/A speed=  19x    frame=29574 fps=455 q=-0.0 size=N/A time=00:20:33.48 bitrate=N/A speed=  19x    frame=29799 fps=455 q=-0.0 size=N/A time=00:20:42.86 bitrate=N/A speed=  19x    frame=30059 fps=455 q=-0.0 size=N/A time=00:20:53.71 bitrate=N/A speed=  19x    frame=30293 fps=455 q=-0.0 size=N/A time=00:21:03.47 bitrate=N/A speed=  19x    frame=30569 fps=456 q=-0.0 size=N/A time=00:21:14.98 bitrate=N/A speed=  19x    frame=30832 fps=456 q=-0.0 size=N/A time=00:21:25.95 bitrate=N/A speed=  19x    frame=31044 fps=456 q=-0.0 size=N/A time=00:21:34.79 bitrate=N/A speed=  19x    frame=31268 fps=456 q=-0.0 size=N/A time=00:21:44.13 bitrate=N/A speed=  19x    frame=31492 fps=456 q=-0.0 size=N/A time=00:21:53.47 bitrate=N/A speed=  19x    frame=31728 fps=456 q=-0.0 size=N/A time=00:22:03.32 bitrate=N/A speed=  19x    frame=31946 fps=455 q=-0.0 size=N/A time=00:22:12.41 bitrate=N/A speed=  19x    frame=32158 fps=455 q=-0.0 size=N/A time=00:22:21.25 bitrate=N/A speed=  19x    frame=32341 fps=454 q=-0.0 size=N/A time=00:22:28.88 bitrate=N/A speed=18.9x    frame=32543 fps=454 q=-0.0 size=N/A time=00:22:37.31 bitrate=N/A speed=18.9x    frame=32728 fps=453 q=-0.0 size=N/A time=00:22:45.03 bitrate=N/A speed=18.9x    frame=32919 fps=453 q=-0.0 size=N/A time=00:22:52.99 bitrate=N/A speed=18.9x    frame=33104 fps=452 q=-0.0 size=N/A time=00:23:00.71 bitrate=N/A speed=18.8x    frame=33297 fps=451 q=-0.0 size=N/A time=00:23:08.76 bitrate=N/A speed=18.8x    frame=33504 fps=451 q=-0.0 size=N/A time=00:23:17.39 bitrate=N/A speed=18.8x    frame=33705 fps=451 q=-0.0 size=N/A time=00:23:25.77 bitrate=N/A speed=18.8x    frame=33890 fps=450 q=-0.0 size=N/A time=00:23:33.49 bitrate=N/A speed=18.8x    frame=34109 fps=450 q=-0.0 size=N/A time=00:23:42.62 bitrate=N/A speed=18.8x    frame=34308 fps=449 q=-0.0 size=N/A time=00:23:50.92 bitrate=N/A speed=18.7x    frame=34494 fps=449 q=-0.0 size=N/A time=00:23:58.68 bitrate=N/A speed=18.7x    [Parsed_ssim_10 @ 0000018671a0ac00] SSIM Y:0.993682 (21.994331) U:0.993300 (21.739317) V:0.993500 (21.871126) All:0.993588 (21.930204)
[out#0/null @ 0000018664cd6e00] video:14903KiB audio:271252KiB subtitle:0KiB other streams:0KiB global headers:0KiB muxing overhead: unknown
frame=34683 fps=449 q=-0.0 Lsize=N/A time=00:24:06.57 bitrate=N/A speed=18.7x    
